<svg data-v-fde0c5aa="" xmlns="http://www.w3.org/2000/svg" viewBox="0 0 300 300" class="iconLeft"><!----><defs data-v-fde0c5aa=""><!----></defs><rect data-v-fde0c5aa="" fill="transparent" x="0" y="0" width="300px" height="300px" class="logo-background-square"></rect><defs data-v-fde0c5aa=""><!----></defs><g data-v-fde0c5aa="" id="84266236-d0f0-41ce-b74f-e20a58502760" fill="#000000" transform="matrix(2.397618624241273,0,0,2.397618624241273,108.39857105658162,127.2705753964618)"><path d="M0.42 14.43L0.42 14.43L0.42 14.01Q0.42 13.80 0.63 13.80L0.63 13.80L0.72 13.80Q1.66 13.75 1.66 12.47L1.66 12.47L1.66 6.32Q1.66 4.98 0.64 4.98L0.64 4.98L0.63 4.98Q0.42 4.98 0.42 4.78L0.42 4.78L0.42 4.35Q0.42 4.14 0.63 4.14L0.63 4.14L4.94 4.14Q6.56 4.14 7.82 4.75Q9.09 5.36 9.83 6.56Q10.58 7.76 10.58 9.37L10.58 9.37Q10.58 10.50 10.26 11.44Q9.95 12.38 9.33 13.10Q8.71 13.83 7.69 14.24Q6.67 14.64 5.33 14.64L5.33 14.64L0.63 14.64Q0.42 14.64 0.42 14.43ZM3.90 4.98L3.90 12.40Q3.90 12.68 3.91 12.83Q3.92 12.99 3.97 13.19Q4.03 13.38 4.13 13.48Q4.24 13.58 4.44 13.65Q4.64 13.73 4.94 13.73L4.94 13.73Q5.74 13.73 6.35 13.54Q6.95 13.34 7.35 12.99Q7.75 12.64 7.99 12.09Q8.24 11.55 8.34 10.89Q8.44 10.23 8.44 9.37L8.44 9.37Q8.44 7.29 7.43 6.14Q6.41 4.98 4.55 4.98L4.55 4.98L3.90 4.98ZM11.41 11.07L11.41 11.07Q11.41 10.01 11.97 9.11Q12.53 8.20 13.50 7.77L13.50 7.77Q14.17 7.47 14.92 7.47L14.92 7.47Q15.98 7.47 16.90 8.07Q17.81 8.66 18.27 9.69L18.27 9.69Q18.60 10.41 18.60 11.22L18.60 11.22Q18.60 12.28 18.04 13.17Q17.48 14.07 16.50 14.51L16.50 14.51Q15.81 14.81 15.08 14.81L15.08 14.81Q14.02 14.81 13.10 14.22Q12.18 13.62 11.73 12.60L11.73 12.60Q11.41 11.87 11.41 11.07ZM13.08 10.19L13.08 10.19Q13.08 10.96 13.47 11.83L13.47 11.83Q13.83 12.63 14.37 13.16Q14.91 13.69 15.52 13.69L15.52 13.69Q15.79 13.69 16.08 13.57L16.08 13.57Q16.93 13.20 16.93 12.09L16.93 12.09Q16.93 11.33 16.54 10.46L16.54 10.46Q16.17 9.65 15.63 9.12Q15.09 8.59 14.48 8.59L14.48 8.59Q14.21 8.59 13.92 8.72L13.92 8.72Q13.08 9.08 13.08 10.19ZM19.45 10.81L19.45 10.81Q19.52 9.97 19.85 9.31Q20.19 8.65 20.70 8.26Q21.20 7.88 21.78 7.68Q22.37 7.48 22.98 7.48L22.98 7.48L23.24 7.49Q24.42 7.57 25.02 8.11Q25.62 8.64 25.79 9.41L25.79 9.41L25.79 9.47Q25.79 9.61 25.63 9.65L25.63 9.65L24.02 10.08Q23.95 10.10 23.90 10.10L23.90 10.10Q23.84 10.10 23.81 10.08Q23.78 10.06 23.79 10.01L23.79 10.01L23.80 9.86Q23.81 9.79 23.81 9.71L23.81 9.71Q23.81 9.21 23.56 8.93L23.56 8.93Q23.27 8.60 22.66 8.59L22.66 8.59Q22.03 8.59 21.68 9.09Q21.33 9.58 21.27 10.36L21.27 10.36Q21.24 10.72 21.24 10.89L21.24 10.89Q21.24 11.44 21.34 11.90Q21.44 12.37 21.66 12.75Q21.88 13.13 22.26 13.35Q22.64 13.58 23.15 13.58L23.15 13.58Q23.24 13.58 23.41 13.56L23.41 13.56Q23.84 13.52 24.26 13.27Q24.67 13.01 24.97 12.56L24.97 12.56Q25.04 12.46 25.14 12.46L25.14 12.46Q25.20 12.46 25.26 12.50L25.26 12.50L25.63 12.76Q25.79 12.87 25.71 13.04L25.71 13.04Q24.99 14.56 23.16 14.75L23.16 14.75Q22.97 14.77 22.78 14.77L22.78 14.77Q22.01 14.77 21.35 14.43Q20.69 14.10 20.26 13.54L20.26 13.54Q19.82 12.99 19.61 12.27L19.61 12.27Q19.43 11.71 19.43 11.13L19.43 11.13Q19.43 10.97 19.45 10.81ZM26.33 8.27L26.33 8.27L26.33 7.85Q26.33 7.64 26.54 7.64L26.54 7.64L27.55 7.64L27.55 6.71Q27.55 6.53 27.68 6.45L27.68 6.45Q28.65 5.93 29.39 5.30L29.39 5.30Q29.43 5.26 29.46 5.26L29.46 5.26L29.48 5.26Q29.51 5.26 29.51 5.28L29.51 5.28L29.51 7.64L31.38 7.64Q31.60 7.64 31.60 7.85L31.60 7.85L31.60 8.46Q31.60 8.67 31.38 8.67L31.38 8.67L29.52 8.67L29.52 12.67Q29.52 13.62 30.10 13.62L30.10 13.62Q30.45 13.62 31.10 13.22L31.10 13.22L31.11 13.21Q31.17 13.17 31.23 13.17L31.23 13.17Q31.32 13.17 31.40 13.28L31.40 13.28L31.62 13.63Q31.66 13.69 31.66 13.75L31.66 13.75Q31.66 13.84 31.55 13.92L31.55 13.92L31.14 14.18Q30.11 14.82 29.18 14.82L29.18 14.82Q28.83 14.82 28.55 14.71Q28.27 14.61 28.04 14.37Q27.81 14.13 27.68 13.70Q27.55 13.27 27.55 12.67L27.55 12.67L27.55 10.08Q27.55 9.86 27.55 9.74Q27.54 9.63 27.52 9.43Q27.51 9.24 27.47 9.13Q27.43 9.02 27.36 8.88Q27.29 8.74 27.18 8.66Q27.08 8.59 26.91 8.54Q26.75 8.48 26.54 8.48Q26.33 8.48 26.33 8.27ZM32.12 11.07L32.12 11.07Q32.12 10.01 32.68 9.11Q33.24 8.20 34.21 7.77L34.21 7.77Q34.88 7.47 35.63 7.47L35.63 7.47Q36.69 7.47 37.61 8.07Q38.53 8.66 38.99 9.69L38.99 9.69Q39.31 10.41 39.31 11.22L39.31 11.22Q39.31 12.28 38.75 13.17Q38.19 14.07 37.21 14.51L37.21 14.51Q36.52 14.81 35.79 14.81L35.79 14.81Q34.73 14.81 33.81 14.22Q32.89 13.62 32.44 12.60L32.44 12.60Q32.12 11.87 32.12 11.07ZM33.79 10.19L33.79 10.19Q33.79 10.96 34.18 11.83L34.18 11.83Q34.54 12.63 35.08 13.16Q35.62 13.69 36.23 13.69L36.23 13.69Q36.50 13.69 36.79 13.57L36.79 13.57Q37.64 13.20 37.64 12.09L37.64 12.09Q37.64 11.33 37.25 10.46L37.25 10.46Q36.89 9.65 36.34 9.12Q35.80 8.59 35.19 8.59L35.19 8.59Q34.92 8.59 34.63 8.72L34.63 8.72Q33.79 9.08 33.79 10.19ZM39.81 14.43L39.81 14.43L39.81 14.01Q39.81 13.80 40.01 13.80L40.01 13.80L40.04 13.80Q40.54 13.80 40.80 13.43Q41.06 13.06 41.06 12.47L41.06 12.47L41.06 10.71Q41.06 10.37 41.04 10.14Q41.02 9.92 40.94 9.67Q40.87 9.41 40.69 9.27Q40.51 9.13 40.24 9.10L40.24 9.10Q40.06 9.08 40.07 8.92L40.07 8.92L40.07 8.44Q40.07 8.29 40.27 8.26L40.27 8.26Q41.17 8.11 41.92 7.81Q42.68 7.50 43.05 7.24L43.05 7.24Q43.09 7.21 43.11 7.21L43.11 7.21L43.14 7.21Q43.16 7.21 43.16 7.23L43.16 7.23L42.83 9.11Q43.20 8.32 43.86 7.89Q44.52 7.46 45.29 7.46L45.29 7.46Q45.98 7.46 46.43 7.84Q46.87 8.22 46.87 8.91L46.87 8.91Q46.87 9.28 46.81 9.49Q46.74 9.70 46.50 9.80L46.50 9.80L45.19 10.34Q45.13 10.36 45.07 10.36L45.07 10.36Q44.94 10.36 44.94 10.23L44.94 10.23Q44.94 10.16 44.97 10.10L44.97 10.10Q45.10 9.79 45.10 9.41L45.10 9.41Q45.10 9.04 44.92 8.86Q44.73 8.68 44.43 8.68L44.43 8.68Q44.00 8.68 43.61 9.06Q43.22 9.44 43.03 9.89L43.03 9.89L43.03 12.47Q43.03 13.06 43.30 13.43Q43.57 13.80 44.06 13.80L44.06 13.80L44.08 13.80Q44.30 13.80 44.30 14.01L44.30 14.01L44.30 14.43Q44.30 14.64 44.08 14.64L44.08 14.64L40.01 14.64Q39.81 14.64 39.81 14.43ZM47.09 14.43L47.09 14.43L47.09 14.01Q47.09 13.80 47.30 13.80L47.30 13.80Q47.41 13.80 47.49 13.78Q47.58 13.77 47.65 13.71Q47.73 13.66 47.79 13.62Q47.84 13.58 47.91 13.48Q47.97 13.38 48.00 13.33Q48.04 13.28 48.09 13.14Q48.15 13.00 48.18 12.94Q48.20 12.88 48.27 12.70Q48.33 12.53 48.35 12.47L48.35 12.47L51.37 4.32Q51.43 4.15 51.60 4.15L51.60 4.15L53.29 4.15Q53.48 4.15 53.53 4.31L53.53 4.31L56.69 12.47Q56.72 12.53 56.78 12.70Q56.84 12.87 56.86 12.93Q56.89 12.99 56.95 13.13Q57.00 13.26 57.04 13.32Q57.08 13.38 57.14 13.48Q57.20 13.58 57.26 13.62Q57.31 13.66 57.38 13.71Q57.46 13.76 57.54 13.78Q57.63 13.80 57.72 13.80L57.72 13.80Q57.93 13.80 57.93 14.01L57.93 14.01L57.93 14.43Q57.93 14.64 57.72 14.64L57.72 14.64L53.43 14.64Q53.22 14.64 53.22 14.43L53.22 14.43L53.22 14.01Q53.22 13.80 53.43 13.80L53.43 13.80Q53.87 13.80 54.19 13.53Q54.51 13.25 54.51 12.84L54.51 12.84Q54.51 12.65 54.44 12.47L54.44 12.47L54.00 11.29L50.18 11.29L49.76 12.47Q49.70 12.65 49.70 12.82L49.70 12.82Q49.70 13.23 50.02 13.52Q50.35 13.80 50.78 13.80L50.78 13.80Q51.00 13.80 51.00 14.01L51.00 14.01L51.00 14.43Q51.00 14.64 50.78 14.64L50.78 14.64L47.30 14.64Q47.09 14.64 47.09 14.43ZM52.05 5.97L50.60 10.07L53.56 10.07L52.05 5.97ZM58.50 14.43L58.50 14.43L58.50 14.01Q58.50 13.80 58.71 13.80L58.71 13.80L58.80 13.80Q59.75 13.75 59.75 12.47L59.75 12.47L59.75 6.32Q59.75 5.03 58.80 4.98L58.80 4.98L58.71 4.98Q58.50 4.98 58.50 4.77L58.50 4.77L58.50 4.35Q58.50 4.14 58.71 4.14L58.71 4.14L63.01 4.14Q63.23 4.14 63.23 4.35L63.23 4.35L63.23 4.77Q63.23 4.98 63.01 4.98L63.01 4.98L62.93 4.98Q61.99 5.03 61.99 6.32L61.99 6.32L61.99 12.47Q61.99 13.75 62.93 13.80L62.93 13.80L63.01 13.80Q63.23 13.80 63.23 14.01L63.23 14.01L63.23 14.43Q63.23 14.64 63.01 14.64L63.01 14.64L58.71 14.64Q58.50 14.64 58.50 14.43Z"></path></g><defs data-v-fde0c5aa=""><linearGradient data-v-fde0c5aa="" gradientTransform="rotate(25)" id="8071bd9a-c5d5-4308-9b21-82a785b81305" x1="0%" y1="0%" x2="100%" y2="0%"><stop data-v-fde0c5aa="" offset="0%" stop-color="#01695A" stop-opacity="1"></stop><stop data-v-fde0c5aa="" offset="100%" stop-color="#2CC26F" stop-opacity="1"></stop></linearGradient></defs><g data-v-fde0c5aa="" id="385654e2-0279-494f-9251-8c1898910c80" stroke="none" fill="url(#8071bd9a-c5d5-4308-9b21-82a785b81305)" transform="matrix(0.711293495268862,0,0,0.711293495268862,32.673676863062255,114.22193637396543)"><path d="M13.3 56.4h11.9l4.4-6.7 12.2 27.6 12.9-36.7L65 66.8l8.9-10.3h12.7c1.7 0 3-1.3 3-3s-1.3-3-3-3H71.2L67 55.2 54.5 23.3 41.2 61 30.7 37.2 22 50.4h-8.7c-1.7 0-3 1.3-3 3s1.4 3 3 3z"></path></g><!----></svg>